<svg xmlns="http://www.w3.org/2000/svg" width="98" height="96" fill="none"><path fill="#fff" stroke="#fff" d="M92.765 35.788a3.091 3.091 0 0 0-1.293-1.446l-9.412-5.434V18.04a3.105 3.105 0 0 0-3.105-3.105H68.088l-5.434-9.412a3.105 3.105 0 0 0-4.24-1.137L49 9.82l-9.412-5.434a3.105 3.105 0 0 0-4.241 1.137l-5.434 9.412H19.044a3.105 3.105 0 0 0-3.105 3.105v10.868l-9.412 5.434a3.091 3.091 0 0 0-1.293 1.446H4c-1.039 0-1.959.18-2.603.822C.755 37.25.5 38.237.5 39.562V57c0 1.095.269 1.946.928 2.5.64.537 1.54.702 2.572.702h1.235a3.09 3.09 0 0 0 1.293 1.446l9.412 5.434V77.95a3.105 3.105 0 0 0 3.105 3.105h10.868l5.434 9.412a3.105 3.105 0 0 0 4.241 1.137L49 86.17l9.412 5.433a3.105 3.105 0 0 0 4.241-1.136l5.434-9.412h10.868a3.105 3.105 0 0 0 3.105-3.105V67.082l9.412-5.434a3.09 3.09 0 0 0 1.293-1.446H94c1.033 0 1.933-.165 2.572-.701.66-.555.928-1.405.928-2.501V39c0-1.077-.27-1.926-.925-2.486-.636-.545-1.535-.726-2.575-.726h-1.235zm-77.197 0c6.241-17.155 24.68-26.984 42.644-22.17 11.636 3.118 20.373 11.656 24.222 22.17H15.568zm-.001 24.414h66.867c-6.242 17.155-24.68 26.984-42.645 22.17-11.636-3.118-20.373-11.656-24.222-22.17z"/><path fill="url(#a)" d="M16.44 77.955a2.605 2.605 0 0 0 2.604 2.605h11.157l5.579 9.662a2.605 2.605 0 0 0 3.558.954L49 85.597l9.662 5.579a2.605 2.605 0 0 0 3.558-.954l5.578-9.662h11.157a2.605 2.605 0 0 0 2.605-2.605V66.8l9.662-5.579a2.605 2.605 0 0 0 .954-3.558L86.597 48l5.578-9.662a2.605 2.605 0 0 0-.953-3.559l-9.662-5.578V18.044a2.605 2.605 0 0 0-2.605-2.604H67.8l-5.58-9.662a2.605 2.605 0 0 0-3.558-.954L49 10.403l-9.662-5.579a2.605 2.605 0 0 0-3.559.954l-5.578 9.662H19.044a2.605 2.605 0 0 0-2.604 2.604v11.157L6.778 34.78a2.605 2.605 0 0 0-.954 3.558L11.402 48l-5.578 9.662a2.605 2.605 0 0 0 .953 3.558l9.663 5.58v11.156z"/><path fill="url(#b)" stroke="#fff" stroke-width="1.171" d="m39.027 86.35-.24-.238-.325.087-11.504 3.083a2.195 2.195 0 0 1-2.688-1.552l-3.082-11.504-.088-.326-.326-.088L9.27 72.73a2.195 2.195 0 0 1-1.552-2.688L10.8 58.538l.088-.326-.24-.24-8.42-8.42a2.195 2.195 0 0 1 0-3.104l8.421-8.421.24-.24-.088-.325-3.083-11.504a2.195 2.195 0 0 1 1.553-2.688l11.502-3.082.327-.088.087-.326L24.27 8.27a2.195 2.195 0 0 1 2.688-1.552l11.504 3.083.326.087.239-.239 8.42-8.42a2.195 2.195 0 0 1 3.105 0l8.421 8.42.239.24.326-.088 11.504-3.083A2.195 2.195 0 0 1 73.73 8.27l3.082 11.504.088.326.326.088L88.73 23.27a2.195 2.195 0 0 1 1.552 2.688L87.2 37.461l-.087.327.239.239 8.42 8.42a2.195 2.195 0 0 1 0 3.105l-8.42 8.421-.24.239.088.326 3.083 11.504a2.195 2.195 0 0 1-1.552 2.688l-11.504 3.082-.326.088-.088.326L73.73 87.73a2.195 2.195 0 0 1-2.689 1.552L59.54 86.2l-.327-.087-.239.239-8.42 8.42a2.195 2.195 0 0 1-3.105 0l-8.421-8.42z"/><circle cx="49" cy="48" r="35.122" fill="#fff"/><circle cx="48.95" cy="48" r="32.195" fill="#fff" stroke="url(#c)" stroke-width="1.171"/><rect width="94.829" height="22.244" x="1.585" y="36.878" fill="#fff" stroke="url(#d)" stroke-width="1.171" rx="1.756"/><path fill="url(#e)" d="m18.51 51.357 1.971-1.551c1.047 1.404 2.159 2.051 3.397 2.051 1.231 0 2.312-.64 3.312-2.032l1.998 1.514c-1.442 2.008-3.235 3.07-5.31 3.07-2.069 0-3.879-1.055-5.367-3.052z"/><path fill="url(#f)" d="m23.872 44.614-3.507 3.106-1.621-1.932 5.135-4.549 5.095 4.552-1.628 1.926-3.474-3.103z"/><path fill="#111" d="M36.744 52.492c-1.197 0-2.195-.398-3.005-1.196-.809-.81-1.208-1.846-1.208-3.111 0-1.276.41-2.325 1.22-3.146.82-.831 1.818-1.241 3.005-1.241 1.464 0 2.76.649 3.515 1.663l-1.32 1.425c-.633-.696-1.32-1.049-2.063-1.049-.632 0-1.154.216-1.586.661-.422.445-.632 1.004-.632 1.675 0 .65.21 1.197.632 1.642.432.433.954.649 1.575.649.809 0 1.519-.365 2.106-1.083l1.376 1.357c-.378.513-.887.934-1.52 1.264-.632.331-1.33.49-2.096.49h.001zm5.942-8.82v8.695h-1.952v-8.695h1.952zm1.85 1.845c-.654 0-1.131-.49-1.131-1.161 0-.65.499-1.14 1.13-1.14.632 0 1.12.49 1.12 1.14 0 .672-.488 1.162-1.12 1.162zm.986.56v6.29H43.56v-6.29h1.962zm3.757 6.427c-.965 0-1.74-.308-2.35-.923-.599-.615-.898-1.402-.898-2.37 0-.97.3-1.755.909-2.371.61-.616 1.397-.923 2.373-.923 1.275 0 2.395.638 2.916 1.835l-1.563.843c-.31-.535-.744-.81-1.309-.81-.41 0-.743.138-1.01.412a1.425 1.425 0 0 0-.388 1.013c0 .832.588 1.448 1.376 1.448.565 0 1.086-.32 1.308-.809l1.564.957c-.533 1.049-1.63 1.698-2.928 1.698zm9.735-.137h-2.33l-1.808-2.496-.288.274v2.222h-1.95v-8.695h1.95V47.9l1.841-1.824h2.384l-2.627 2.53 2.828 3.761zm.13-3.27v-5.152h2.085v5.117c0 .946.532 1.402 1.297 1.402.754 0 1.286-.479 1.286-1.402v-5.117h2.097v5.151c0 2.485-1.675 3.42-3.383 3.42-1.696 0-3.382-.935-3.382-3.42zm11.397-3.18c.876 0 1.586.319 2.151.957.566.627.843 1.413.843 2.336 0 .924-.288 1.71-.853 2.36a2.727 2.727 0 0 1-2.13.957c-.676 0-1.264-.228-1.74-.684v3.112h-1.963v-8.879h1.93v.582a2.365 2.365 0 0 1 1.762-.74zm.998 3.316c0-.82-.576-1.447-1.375-1.447-.798 0-1.386.627-1.386 1.447 0 .4.133.741.388 1.026.266.285.599.422.998.422.4 0 .732-.137.987-.422a1.49 1.49 0 0 0 .389-1.026h-.001zM31.065 67.999h1.05v-1.21h.708c.92 0 1.515-.565 1.515-1.448v-.006c0-.883-.594-1.46-1.515-1.46h-1.758v4.124zm1.507-3.321c.443 0 .706.228.706.657v.006c0 .428-.263.66-.706.66h-.458v-1.323h.458zm4.153 3.395c1.257 0 2.038-.82 2.038-2.135v-.006c0-1.311-.783-2.132-2.038-2.132-1.247 0-2.035.82-2.035 2.132v.006c0 1.315.783 2.135 2.035 2.135zm0-.869c-.59 0-.966-.483-.966-1.266v-.006c0-.783.38-1.263.966-1.263.591 0 .971.483.971 1.263v.006c0 .775-.371 1.266-.971 1.266zm3.29.795h1.031l.652-2.475h.02l.655 2.475h1.031l1.078-4.124h-1.083l-.56 2.726h-.02l-.67-2.727h-.88l-.669 2.727h-.02l-.56-2.727h-1.083L40.015 68zm4.896 0h2.826v-.843H45.96v-.835h1.672v-.789H45.96v-.814h1.777v-.844h-2.826V68zm3.418 0h1.05v-1.42h.534l.709 1.42h1.177l-.826-1.578c.429-.186.703-.643.703-1.172v-.005c0-.875-.563-1.37-1.56-1.37h-1.787V68zm1.05-2.18v-1.153h.614c.368 0 .614.229.614.575v.005c0 .35-.237.572-.609.572h-.62zm5.739 2.254c1.083 0 1.777-.611 1.777-1.537v-2.662h-1.049v2.561c0 .48-.257.77-.726.77-.471 0-.728-.29-.728-.77v-2.56h-1.05v2.66c0 .93.7 1.538 1.776 1.538zm3.992 0c1.092 0 1.738-.523 1.738-1.346v-.003c0-.66-.406-1.014-1.28-1.183l-.423-.08c-.443-.083-.638-.2-.638-.423v-.003c0-.237.218-.412.603-.412.378 0 .644.169.675.44l.003.032h.975l-.003-.06c-.038-.749-.623-1.235-1.658-1.235-.946 0-1.635.512-1.635 1.306v.003c0 .632.431 1.035 1.249 1.186l.423.08c.483.095.666.203.666.438v.003c0 .257-.257.434-.675.434-.403 0-.711-.174-.763-.44l-.005-.032h-.975l.003.052c.045.789.694 1.243 1.72 1.243zM61.334 68h2.827v-.843h-1.778v-.835h1.672v-.789h-1.672v-.814h1.778v-.844h-2.827V68zm3.419 0h1.049v-1.42h.534l.709 1.42h1.177l-.825-1.578c.428-.186.703-.643.703-1.172v-.005c0-.875-.563-1.37-1.561-1.37h-1.786V68zm1.049-2.18v-1.153h.614c.369 0 .615.229.615.575v.005c0 .35-.238.572-.61.572h-.62zM35.836 30.585h1.606l1.567-4.95h-1.41l-.946 3.722h-.024l-.95-3.721h-1.41l1.567 4.95zm3.646 0h3.392v-1.012h-2.133v-1.001h2.007v-.947H40.74v-.977h2.133v-1.012h-3.392v4.95zm4.102 0h1.26V28.88h.64l.851 1.705h1.413l-.99-1.893c.514-.223.843-.772.843-1.407v-.006c0-1.05-.676-1.643-1.873-1.643h-2.144v4.95zm1.26-2.617v-1.382h.737c.442 0 .737.274.737.69v.006c0 .419-.285.686-.73.686h-.745zm3.391 2.617h1.26v-4.95h-1.26v4.95zm2.01 0h1.26V28.74h1.916v-.964h-1.917v-1.128h2.11v-1.012h-3.369v4.95zm3.924 0h1.259v-4.95h-1.259v4.95zm2.01 0h3.392v-1.012h-2.133v-1.001h2.006v-.947h-2.006v-.977h2.133v-1.012H56.18v4.95zm4.102 0h2.01c1.492 0 2.374-.923 2.374-2.504v-.007c0-1.574-.882-2.438-2.374-2.438h-2.01v4.95zm1.259-1.015v-2.92h.586c.793 0 1.26.5 1.26 1.427v.007c0 .988-.44 1.485-1.26 1.485h-.586z"/><path fill="#5CBDFA" d="m86.999 44.438.92 2.831h2.977l-2.409 1.75.92 2.832L87 50.1l-2.409 1.75.92-2.832-2.408-1.75h2.977l.92-2.831z"/><path fill="#61B8FA" d="m9.73 44.438.92 2.831h2.977l-2.408 1.75.92 2.832L9.73 50.1l-2.408 1.75.92-2.832-2.409-1.75H8.81l.92-2.831z"/><defs><linearGradient id="a" x1="1.372" x2="88.244" y1="52.007" y2="75.284" gradientUnits="userSpaceOnUse"><stop stop-color="#FC30FD"/><stop offset="1" stop-color="#49CCF9"/></linearGradient><linearGradient id="b" x1="1" x2="97" y1="65.29" y2="65.29" gradientUnits="userSpaceOnUse"><stop stop-color="#FC30FD"/><stop offset="1" stop-color="#49CCF9"/></linearGradient><linearGradient id="c" x1="16.169" x2="81.731" y1="59.808" y2="59.808" gradientUnits="userSpaceOnUse"><stop stop-color="#FC30FD"/><stop offset="1" stop-color="#49CCF9"/></linearGradient><linearGradient id="d" x1="1" x2="97" y1="52.217" y2="52.217" gradientUnits="userSpaceOnUse"><stop stop-color="#FC30FD"/><stop offset="1" stop-color="#49CCF9"/></linearGradient><linearGradient id="e" x1="18.511" x2="29.188" y1="52.936" y2="52.936" gradientUnits="userSpaceOnUse"><stop stop-color="#8930FD"/><stop offset="1" stop-color="#49CCF9"/></linearGradient><linearGradient id="f" x1="18.744" x2="28.974" y1="45.647" y2="45.647" gradientUnits="userSpaceOnUse"><stop stop-color="#FF02F0"/><stop offset="1" stop-color="#FFC800"/></linearGradient></defs></svg>